<svg xmlns="http://www.w3.org/2000/svg" width="293.859" height="207.584" viewBox="0 0 293.859 207.584">
  <path id="AQuienExtranas" d="M-324.725-2159.958l16.556-42.748a1.256,1.256,0,0,1,1-.746l.616-.041a1.255,1.255,0,0,1,1.093.609l22.024,40.206a1.091,1.091,0,0,1-.943,1.671l-6.84.45c-1.11.073-1.627-.264-2.259-1.4l-2.539-4.721-16.763,1.1-1.895,5.077a2.3,2.3,0,0,1-2.12,1.625l-6.78.447c-.034,0-.068,0-.1,0A1.083,1.083,0,0,1-324.725-2159.958Zm19.045-24.714-3.952,10.473,9.367-.617-5.353-9.859Zm24.871,22.254-2.672-40.8a1.171,1.171,0,0,1,1.094-1.246l14.359-.941c7.272-.475,13.577,4.125,14,10.6.311,4.745-3.715,8.475-6.511,10.206,3.355,1.141,8.545,3.834,8.916,9.5.452,6.9-5.323,12.293-12.657,12.774l-15.284,1-.08,0A1.172,1.172,0,0,1-280.809-2162.417Zm13.528-17.411-4.991.327.577,8.813,5.608-.367a4.481,4.481,0,0,0,4.143-4.789c-.154-2.359-2.7-3.994-5.02-3.994Q-267.124-2179.839-267.281-2179.829Zm-1.274-16.627-4.807.315.565,8.628,4.807-.316a4.4,4.4,0,0,0,4.024-4.719,4.174,4.174,0,0,0-4.278-3.919Q-268.4-2196.467-268.556-2196.456Zm22.991,31.733-2.655-40.8a1.172,1.172,0,0,1,1.1-1.247l18.428-1.2a13.429,13.429,0,0,1,14.3,12.438c.369,5.67-3.093,10.475-8.315,12.981l9.462,15.1a1.169,1.169,0,0,1-.932,1.856l-8.2.533a1.139,1.139,0,0,1-1.022-.49l-9.259-15.8-4.252.277,1.022,15.715a1.213,1.213,0,0,1-1.094,1.247l-7.334.478-.08,0A1.174,1.174,0,0,1-245.565-2164.723Zm16.639-34.38-9.121.594.626,9.614,9.121-.593a4.952,4.952,0,0,0,4.362-5.235,4.736,4.736,0,0,0-4.693-4.389C-228.728-2199.113-228.827-2199.11-228.926-2199.1Zm170.672,28.366a5.944,5.944,0,0,1,5.417-6.285,6.008,6.008,0,0,1,6.293,5.54,5.945,5.945,0,0,1-5.549,6.17q-.178.011-.355.011A5.885,5.885,0,0,1-58.253-2170.737Zm-154.061,3.417,16.609-42.723a1.249,1.249,0,0,1,1-.745l.617-.041a1.257,1.257,0,0,1,1.092.61l21.078,38.594,13.9-31.7-.008-.123-13.437.865a1.215,1.215,0,0,1-1.246-1.1l-.434-6.719a1.217,1.217,0,0,1,1.1-1.247l26.2-1.686a1.217,1.217,0,0,1,1.247,1.1l.051.8-13.782,33.009.008.123,13.437-.865a1.172,1.172,0,0,1,1.246,1.1l.434,6.719a1.173,1.173,0,0,1-1.1,1.246l-26.751,1.723a1.091,1.091,0,0,1-.426-.06,1.364,1.364,0,0,1-.484.117l-6.842.443c-1.109.071-1.626-.266-2.256-1.4L-183.6-2174l-16.762,1.084-1.9,5.074a2.3,2.3,0,0,1-2.122,1.623l-6.78.438c-.034,0-.067,0-.1,0A1.084,1.084,0,0,1-212.314-2167.321Zm19.074-24.688-3.965,10.468,9.367-.605-5.342-9.866Zm50.182,20.218,16.634-42.719a1.253,1.253,0,0,1,1-.744l.617-.04a1.255,1.255,0,0,1,1.092.61l21.951,40.245a1.091,1.091,0,0,1-.945,1.67l-6.842.438c-1.11.071-1.626-.267-2.256-1.4l-2.531-4.728-16.766,1.075-1.9,5.073a2.3,2.3,0,0,1-2.124,1.621l-6.78.435c-.034,0-.068,0-.1,0A1.083,1.083,0,0,1-143.059-2171.791Zm19.09-24.681L-127.94-2186l9.369-.6-5.336-9.869Zm24.841,22.3-2.6-40.8a1.174,1.174,0,0,1,1.1-1.246l18.429-1.176a13.431,13.431,0,0,1,14.287,12.456c.362,5.67-3.107,10.472-8.331,12.971l9.444,15.117a1.169,1.169,0,0,1-.934,1.855l-8.2.523a1.14,1.14,0,0,1-1.022-.491l-9.24-15.811-4.253.272,1,15.718a1.214,1.214,0,0,1-1.1,1.246l-7.335.468-.078,0A1.173,1.173,0,0,1-99.128-2174.173Zm16.683-34.36-9.122.581.614,9.616,9.122-.582a4.951,4.951,0,0,0,4.369-5.23,4.735,4.735,0,0,0-4.692-4.394Q-82.3-2208.543-82.445-2208.533Zm24.736,24.952-.165-2.589c-.329-5.178,8.032-8,7.782-11.943-.122-1.911-2.2-3.511-4.855-3.344-4.315.275-5.239,4.232-6.866,2.975l-3.994-3.46a1.1,1.1,0,0,1-.1-1.6,17.292,17.292,0,0,1,12.168-6.219c6.533-.415,12.865,3.762,13.26,9.987.517,8.136-8.714,8.97-8.29,15.628a1.173,1.173,0,0,1-1.1,1.245l-6.6.419-.073,0A1.173,1.173,0,0,1-57.709-2183.582Zm-261.469-39.328-2.672-40.8a1.173,1.173,0,0,1,1.094-1.247l25.514-1.67a1.172,1.172,0,0,1,1.248,1.094l.44,6.717a1.174,1.174,0,0,1-1.094,1.248l-17.071,1.118.5,7.641,14.051-.919a1.215,1.215,0,0,1,1.248,1.094l.44,6.719a1.173,1.173,0,0,1-1.094,1.248l-14.052.92.545,8.32,17.072-1.117a1.17,1.17,0,0,1,1.247,1.093l.441,6.719a1.173,1.173,0,0,1-1.094,1.247l-25.514,1.67c-.027,0-.055,0-.081,0A1.172,1.172,0,0,1-319.178-2222.91Zm29.8-2.509,11.615-21.242-13.7-18.48a1.11,1.11,0,0,1,.935-1.793l9-.586a1.331,1.331,0,0,1,1.022.49l7.834,11,.061,0,6.465-11.932a1.229,1.229,0,0,1,.951-.618l9-.586c1.048-.068,1.662.819,1.16,1.657l-11.255,20.1,14.269,19.558a1.079,1.079,0,0,1-.874,1.79l-8.566.556a1.372,1.372,0,0,1-1.084-.485l-8.884-11.924-.123.008-7.078,12.962a1.356,1.356,0,0,1-1.012.624l-8.566.556c-.039,0-.077,0-.114,0A1.082,1.082,0,0,1-289.374-2225.419Zm47.3-2.52-2.132-32.91-8.813.572a1.173,1.173,0,0,1-1.247-1.1l-.436-6.718a1.172,1.172,0,0,1,1.1-1.246l27.363-1.773a1.172,1.172,0,0,1,1.247,1.094l.436,6.718a1.173,1.173,0,0,1-1.1,1.247l-8.813.571,2.132,32.91a1.215,1.215,0,0,1-1.094,1.246l-7.4.48-.066,0A1.219,1.219,0,0,1-242.074-2227.939Zm23.415-1.517-2.632-40.8a1.173,1.173,0,0,1,1.1-1.247l18.427-1.189a13.431,13.431,0,0,1,14.295,12.445c.365,5.671-3.1,10.473-8.322,12.976l9.454,15.109a1.169,1.169,0,0,1-.932,1.855l-8.2.528a1.135,1.135,0,0,1-1.021-.49l-9.251-15.8-4.253.274,1.014,15.715a1.215,1.215,0,0,1-1.1,1.248l-7.333.472-.08,0A1.173,1.173,0,0,1-218.659-2229.457ZM-202-2263.826l-9.122.589.621,9.614,9.122-.589a4.953,4.953,0,0,0,4.365-5.232,4.735,4.735,0,0,0-4.693-4.391Q-201.854-2263.835-202-2263.826Zm16.61,31.79,16.628-42.721a1.254,1.254,0,0,1,1-.745l.617-.04a1.253,1.253,0,0,1,1.092.611l21.956,40.242a1.091,1.091,0,0,1-.945,1.671l-6.841.439c-1.11.07-1.627-.267-2.257-1.4l-2.532-4.727-16.764,1.076-1.9,5.074a2.3,2.3,0,0,1-2.124,1.621l-6.78.437c-.034,0-.068,0-.1,0A1.083,1.083,0,0,1-185.39-2232.036Zm19.086-24.682-3.97,10.467,9.369-.6-5.338-9.87Zm24.806,22.3-2.708-41.477a1.162,1.162,0,0,1,1.1-1.185l1.541-.1,26.1,22.1.062,0-1.4-21.881a1.173,1.173,0,0,1,1.1-1.246l7.4-.473a1.215,1.215,0,0,1,1.246,1.1l2.647,41.482a1.161,1.161,0,0,1-1.1,1.184l-.985.062a1.825,1.825,0,0,1-.822-.256l-25.908-22.917-.061,0,1.467,22.991a1.173,1.173,0,0,1-1.1,1.246l-7.334.468-.065,0A1.219,1.219,0,0,1-141.5-2234.418Zm39.609-2.963,16.655-42.708a1.255,1.255,0,0,1,1.005-.744l.617-.04a1.253,1.253,0,0,1,1.091.612l21.929,40.255a1.092,1.092,0,0,1-.946,1.67l-6.842.435c-1.11.07-1.626-.269-2.255-1.4l-2.528-4.729-16.766,1.065-1.905,5.073a2.3,2.3,0,0,1-2.125,1.619l-6.781.431c-.033,0-.066,0-.1,0A1.083,1.083,0,0,1-101.889-2237.381Zm19.1-24.668-3.976,10.463,9.369-.6-5.332-9.872Zm22.473,19.489c-.655-.577-.857-.812-.418-1.707l2.573-5.3a1.593,1.593,0,0,1,2.072-.5c.254.108,4.9,3.092,8.967,2.836,2.466-.157,4.156-1.812,4.018-3.968-.164-2.589-2.446-4.425-6.743-5.824-5.433-1.759-12.353-5.466-12.821-12.863-.387-6.1,3.968-12.567,13.46-13.169a22.971,22.971,0,0,1,13.484,3.786,1.567,1.567,0,0,1,.495,1.949l-2.843,4.945c-.388.7-1.463,1.329-2.045.933-.574-.273-5.289-3.378-9.049-3.139-2.219.14-3.789,1.725-3.684,3.389.145,2.281,2.1,3.89,7.1,5.553,4.929,1.606,12.811,4.882,13.342,13.263.4,6.349-4.676,13.107-13.738,13.683q-.909.057-1.76.056C-54.843-2238.637-58.921-2241.333-60.314-2242.561Zm-264.92-40.333c-.336-8.146,8.911-8.773,8.636-15.438a1.172,1.172,0,0,1,1.125-1.221l6.6-.272a1.173,1.173,0,0,1,1.221,1.125l.107,2.591c.213,5.184-8.209,7.817-8.046,11.767.078,1.913,2.124,3.56,4.778,3.45,4.32-.177,5.332-4.113,6.93-2.819l3.918,3.548a1.1,1.1,0,0,1,.065,1.6,17.292,17.292,0,0,1-12.3,5.946c-.193.008-.387.012-.58.012C-319.108-2272.6-324.986-2276.845-325.235-2282.893Zm192.127.533-2.267-1.589a1.257,1.257,0,0,1-.46-1.394c.544-1.148,2.936-5.386,6.265-5.6a5.89,5.89,0,0,1,3.646,1.234,5.412,5.412,0,0,0,3.2,1.239c.985-.063,1.831-1.354,2.219-2.061a.943.943,0,0,1,1.534-.221l2.2,1.47c.517.338.621,1.012.175,1.783-.549,1.087-2.59,4.992-5.857,5.2a6.42,6.42,0,0,1-3.937-1.261c-1.064-.666-2-1.332-3.031-1.265-1.109.071-1.813,1.662-2.327,2.314a.915.915,0,0,1-.7.355A1.322,1.322,0,0,1-133.108-2282.36Zm-85.7-1.581-6.984-10.783c-.739.092-1.48.121-1.911.139a22.037,22.037,0,0,1-23.044-21.263,22.141,22.141,0,0,1,21.258-23.168,22.2,22.2,0,0,1,23.111,21.385c.322,8.022-4.014,15.49-10.635,19.9l8.461,12.146a1.178,1.178,0,0,1-.913,1.891l-8.329.335h-.047A1.149,1.149,0,0,1-218.807-2283.942Zm-10.283-45.2a12.429,12.429,0,0,0-11.783,12.9A12.362,12.362,0,0,0-228.1-2304.46a12.375,12.375,0,0,0,11.849-12.776,12.448,12.448,0,0,0-12.347-11.917Q-228.842-2329.153-229.09-2329.143Zm-72.82,35.338,17.624-42.317a1.255,1.255,0,0,1,1.021-.722l.617-.025a1.255,1.255,0,0,1,1.076.636l21.007,40.745a1.09,1.09,0,0,1-.984,1.646l-6.85.279c-1.111.046-1.618-.3-2.222-1.455l-2.42-4.783-16.785.684-2.021,5.027a2.3,2.3,0,0,1-2.161,1.571l-6.789.276h-.064A1.086,1.086,0,0,1-301.91-2293.806Zm19.659-24.227-4.214,10.371,9.381-.383-5.1-9.991Zm80.655,5.218-1.013-25.485a1.214,1.214,0,0,1,1.125-1.219l7.591-.3a1.173,1.173,0,0,1,1.219,1.126l.994,24.992a7.556,7.556,0,0,0,7.9,7.474,7.622,7.622,0,0,0,7.405-8.082l-.995-24.992a1.172,1.172,0,0,1,1.127-1.219l7.589-.3a1.214,1.214,0,0,1,1.22,1.125l1.013,25.485a17.48,17.48,0,0,1-16.967,17.857c-.24.01-.481.014-.719.014A17.4,17.4,0,0,1-201.6-2312.815Zm43.247,13.676L-159.961-2340a1.212,1.212,0,0,1,1.126-1.219l7.405-.292a1.214,1.214,0,0,1,1.219,1.126l1.614,40.856a1.215,1.215,0,0,1-1.127,1.219l-7.405.292h-.041A1.218,1.218,0,0,1-158.349-2299.139Zm17.911-.708-1.607-40.856a1.173,1.173,0,0,1,1.125-1.219l25.551-1a1.171,1.171,0,0,1,1.219,1.126l.265,6.728a1.173,1.173,0,0,1-1.126,1.219l-17.1.672.3,7.654,14.071-.554a1.215,1.215,0,0,1,1.22,1.127l.265,6.727a1.173,1.173,0,0,1-1.127,1.219l-14.071.553.328,8.331,17.1-.671a1.171,1.171,0,0,1,1.219,1.126l.265,6.728a1.172,1.172,0,0,1-1.126,1.219l-25.551,1.005h-.049A1.172,1.172,0,0,1-140.438-2299.847Zm33.672-1.322-1.678-41.532a1.16,1.16,0,0,1,1.129-1.156l1.544-.059,25.547,22.74.061,0-.853-21.91a1.173,1.173,0,0,1,1.127-1.218l7.407-.288a1.215,1.215,0,0,1,1.218,1.127l1.616,41.535a1.16,1.16,0,0,1-1.129,1.156l-.987.04a1.837,1.837,0,0,1-.815-.278l-25.331-23.552-.062,0,.9,23.019a1.174,1.174,0,0,1-1.128,1.219l-7.344.285h-.041A1.216,1.216,0,0,1-106.766-2301.17Zm-211.777-9.877a5.945,5.945,0,0,1,5.686-6.044,5.88,5.88,0,0,1,6.039,5.562,5.947,5.947,0,0,1-5.557,6.163c-.078,0-.156,0-.233,0A6.017,6.017,0,0,1-318.543-2311.047Zm185.45-33.125c-.257-.35-6.313-8.636-5.677-13.726a7.548,7.548,0,0,1,.379-2.067,7.2,7.2,0,0,1,4.975-4.819,5.77,5.77,0,0,1,6.519,3.17,5.773,5.773,0,0,1,7.121,1.337,7.184,7.184,0,0,1,1.125,6.835,7.733,7.733,0,0,1-.972,1.958c-2.476,4.394-12.277,7.441-12.692,7.569l-.48.147Z" transform="translate(325.741 2365.505)" fill="#fff" stroke="rgba(0,0,0,0)" stroke-miterlimit="10" stroke-width="1"/>
</svg>
