<svg xmlns="http://www.w3.org/2000/svg" width="96" height="96" viewBox="0 0 96 96">
  <g id="icon-high-five" transform="translate(14.777 4.177)">
    <rect id="Rectangle_35" data-name="Rectangle 35" width="96" height="96" transform="translate(-14.777 -4.177)" fill="rgba(255,255,255,0.01)"/>
    <g id="Group_102" data-name="Group 102" transform="translate(2.223 8.822)">
      <path id="Path_21" data-name="Path 21" d="M157.366,30.117l-5.233,4.752a11.812,11.812,0,0,1-.161-3.69L153.1,10.885a3.277,3.277,0,0,0,.022-.362,3.38,3.38,0,0,0-2.669-3.266,3.851,3.851,0,0,0-3.781,3.047l1.14-9.229a3.33,3.33,0,0,0,.022-.363,2.724,2.724,0,0,0-2.6-2.672,2.967,2.967,0,0,0-3.3,2.574l-.522,5.511-.15-.253c0-1.469-1.407-4.148-3.981-4.13-1.626.012-3.568,1.348-3.767,2.962l-.089.719-.129,2.8s3.706-2.16,6.358,7.122.82,19.842.82,19.842L139,48.523l2.61,1.579-.809,6.37,3.787,1.164a1.358,1.358,0,0,0,1.669-.937l1.233-4.374a1.359,1.359,0,0,0-.937-1.674l-1.125-.318a136.21,136.21,0,0,1,11.537-11.855L161.34,34.5a2.958,2.958,0,0,0-3.974-4.382Z" transform="translate(-100.759 9.082)" fill="#aee0f8"/>
      <path id="Union_1" data-name="Union 1" d="M-870.938-2285.341a2.453,2.453,0,0,1-.875-.922,2.461,2.461,0,0,1-.271-.846l-.554-4.51a1.968,1.968,0,0,1-.021-.3,2.407,2.407,0,0,1,.349-1.246,2.433,2.433,0,0,1,.857-.815c-.189-.219-.373-.443-.563-.661v0a134.212,134.212,0,0,0-11.075-11.333l-4.374-3.981a4.013,4.013,0,0,1-.985-1.372,4.107,4.107,0,0,1-.327-1.6,3.97,3.97,0,0,1,.257-1.419,4.032,4.032,0,0,1,.781-1.274,3.977,3.977,0,0,1,1.373-.982,4.034,4.034,0,0,1,1.6-.327,4.026,4.026,0,0,1,1.418.256,4,4,0,0,1,1.273.78l0,0,3.7,3.367c0-.025.005-.057.005-.077a11.2,11.2,0,0,0-.071-1.317l-.006-.053-.31-4.114-.531-7.01-.763-10.1c0-.026-.009-.06-.016-.116a2.582,2.582,0,0,1-.018-.268,1.876,1.876,0,0,1,.018-.239,4.457,4.457,0,0,1,.729-1.9,4.543,4.543,0,0,1,1.323-1.26,5.347,5.347,0,0,1,1.021-.5,6.2,6.2,0,0,1,1.377-.332,3.063,3.063,0,0,1,.387-.025,3.286,3.286,0,0,1,.918.134,3.287,3.287,0,0,1,.578.251l-.535-4.311v0a3.522,3.522,0,0,1-.034-.49,3.992,3.992,0,0,1,.581-2.07,4.041,4.041,0,0,1,1.531-1.461,4.025,4.025,0,0,1,1.406-.448,4.4,4.4,0,0,1,.493-.03,3.975,3.975,0,0,1,2.067.581,3.985,3.985,0,0,1,1.46,1.533,3.849,3.849,0,0,1,.449,1.4l.329,2.617a3.255,3.255,0,0,1,.522-.355,3.97,3.97,0,0,1,.95-.349,5.409,5.409,0,0,1,1.273-.14c.139,0,.283,0,.427.014a5.64,5.64,0,0,1,1.607.323,4.5,4.5,0,0,1,1.417.818,3.792,3.792,0,0,1,.737.859,3.771,3.771,0,0,1,.5,1.421l.006,0,.513,2.61a4.3,4.3,0,0,1,.767-.575l.1-2.221.009-.08.087-.717h0a3.592,3.592,0,0,1,.257-.947,4.006,4.006,0,0,1,.476-.823,5.224,5.224,0,0,1,1.363-1.262,5.628,5.628,0,0,1,1.1-.551,4.749,4.749,0,0,1,1.6-.3h.03a4.508,4.508,0,0,1,1.162.148,4.36,4.36,0,0,1,1.018.408,4.971,4.971,0,0,1,1.242.994l.163-1.725.005-.031a4,4,0,0,1,.844-2.005,4.036,4.036,0,0,1,1.706-1.247,3.942,3.942,0,0,1,1.426-.266,4.309,4.309,0,0,1,.492.031,4.506,4.506,0,0,1,1.5.453,3.757,3.757,0,0,1,1.2.956,3.439,3.439,0,0,1,.538.891,3.658,3.658,0,0,1,.277,1.415,4.223,4.223,0,0,1-.03.491h0l-.689,5.582c.141-.079.268-.18.415-.246a4.034,4.034,0,0,1,1.6-.351,3.358,3.358,0,0,1,.4.025,3.47,3.47,0,0,1,.868.224,3.919,3.919,0,0,1,.767.414,4.464,4.464,0,0,1,1.175,1.208,4.872,4.872,0,0,1,.509.995,4.261,4.261,0,0,1,.271,1.468,3.97,3.97,0,0,1-.025.419h0l-1.121,20.3-.006.075-.006.017c0,.013,0,.036-.005.066,0,.061-.016.155-.021.271-.02.238-.039.573-.039.954,0,.025,0,.059,0,.086l3.706-3.368a4,4,0,0,1,1.272-.778,4.038,4.038,0,0,1,1.423-.259,3.988,3.988,0,0,1,1.591.329,3.984,3.984,0,0,1,1.378.982,4.027,4.027,0,0,1,.78,1.273,4.068,4.068,0,0,1,.254,1.419,4.045,4.045,0,0,1-.326,1.595,4.029,4.029,0,0,1-.982,1.375l-4.378,3.98a134.7,134.7,0,0,0-10.38,10.6,1.905,1.905,0,0,1,.27.126,2.3,2.3,0,0,1,.553.537,2.43,2.43,0,0,1,.481,1.437,2.466,2.466,0,0,1-.09.653l-1.232,4.376h0a2.47,2.47,0,0,1-.34.723,2.508,2.508,0,0,1-.541.553,2.4,2.4,0,0,1-1.44.476,2.4,2.4,0,0,1-.647-.088l-.025-.005-3.569-1.1-.015,0h0l-20.552,2.533h0a1.975,1.975,0,0,1-.293.019A2.427,2.427,0,0,1-870.938-2285.341Zm.5-6.811a.33.33,0,0,0-.1.132.388.388,0,0,0-.019.105.174.174,0,0,0,0,.036l.558,4.513a.3.3,0,0,0,.061.15.356.356,0,0,0,.132.1.388.388,0,0,0,.105.016h.039l20.555-2.537h0l.238-.03a.274.274,0,0,0,.149-.064.321.321,0,0,0,.1-.136.267.267,0,0,0,.02-.105.185.185,0,0,0,0-.036v0l-.042-.348-.174-1.4v0l-.207-1.695-.134-1.071v0a.375.375,0,0,0-.025-.089.427.427,0,0,0-.056-.077.363.363,0,0,0-.105-.072.284.284,0,0,0-.116-.022h-.032l-1.066.132-18.865,2.328-.863.105h0A.29.29,0,0,0-870.435-2292.152Zm23.5-1.555v0l.21,1.693.173,1.4.043.348a2.548,2.548,0,0,1,.016.293,2.338,2.338,0,0,1-.187.881l2.019.618a.352.352,0,0,0,.077.011.294.294,0,0,0,.145-.036.367.367,0,0,0,.11-.1.354.354,0,0,0,.044-.088l1.231-4.376a.262.262,0,0,0,.01-.083.351.351,0,0,0-.035-.141.337.337,0,0,0-.1-.111.289.289,0,0,0-.087-.042l-1.066-.3-2.658-.4Zm-38.594-20.954a1.878,1.878,0,0,0-.65.464,1.913,1.913,0,0,0-.371.6,1.951,1.951,0,0,0-.122.677,1.951,1.951,0,0,0,.157.763,1.859,1.859,0,0,0,.464.65l4.379,3.981a136.834,136.834,0,0,1,11.247,11.509c.44.507.874,1.021,1.309,1.535l17.532-2.163,0-.048.151-1.366,1.12-10.112,0-.016a52.981,52.981,0,0,0,.405-6.8c0-2.5-.137-5.076-.333-7.777-.127-1.722-.293-3.558-.458-5.285a17.407,17.407,0,0,0-1.134-4.642,13.11,13.11,0,0,0-.875-1.836,1.312,1.312,0,0,1-.063-.123c-.012-.023-.031-.059-.048-.1a2.39,2.39,0,0,0-.392-.576,2.23,2.23,0,0,0-.5-.41,2.432,2.432,0,0,0-1.233-.333,2.417,2.417,0,0,0-1.107.265,2.342,2.342,0,0,0-.89.8,3.486,3.486,0,0,0-.376.717,1.428,1.428,0,0,0-.105.458l.982,4.979.013.075.215,1.773a1.047,1.047,0,0,1-.912,1.171,1.05,1.05,0,0,1-1.173-.914l-.216-1.736-2.1-10.653-.013-.075a1.544,1.544,0,0,0-.266-.712,1.881,1.881,0,0,0-.577-.524,2.876,2.876,0,0,0-.562-.251,3.712,3.712,0,0,0-.909-.165c-.109-.006-.207-.011-.305-.011a3.14,3.14,0,0,0-.945.128,1.652,1.652,0,0,0-.547.283,1.332,1.332,0,0,0-.244.25,1.927,1.927,0,0,0-.238.433,3.317,3.317,0,0,0-.193.741,7.234,7.234,0,0,0-.061,1.011l1.218,9.725v0l.283,2.27a1.051,1.051,0,0,1-.916,1.173,1.052,1.052,0,0,1-1.173-.915l-.278-2.271v0l-2.064-16.448h0a1.905,1.905,0,0,0-.4-.95,1.944,1.944,0,0,0-.819-.6,1.846,1.846,0,0,0-.673-.127,2.035,2.035,0,0,0-.234.015,1.882,1.882,0,0,0-.95.4,1.946,1.946,0,0,0-.6.815,1.9,1.9,0,0,0-.125.676,1.807,1.807,0,0,0,.014.235l2.342,18.715a1.048,1.048,0,0,1-.913,1.174,1.053,1.053,0,0,1-1.175-.912l-1.308-10.466h0a2.673,2.673,0,0,0-.3-.911,3.151,3.151,0,0,0-.608-.805,2.157,2.157,0,0,0-.483-.344,1.316,1.316,0,0,0-.6-.16,1.272,1.272,0,0,0-.13.007,3.986,3.986,0,0,0-1.015.262,2.907,2.907,0,0,0-.87.53,2.211,2.211,0,0,0-.415.5,2.356,2.356,0,0,0-.315.89c.005.028.01.06.016.114l.005.05.767,10.127.528,7.01.309,4.1a12.445,12.445,0,0,1,.084,1.544c0,.365-.012.768-.053,1.189a9.194,9.194,0,0,1-.213,1.3,1.06,1.06,0,0,1-.713.756,1.071,1.071,0,0,1-1.016-.228l-5.228-4.752a1.961,1.961,0,0,0-.6-.369,1.918,1.918,0,0,0-.678-.123A1.933,1.933,0,0,0-885.533-2314.661Zm32.352-23.153a4.335,4.335,0,0,1,1.517,1.064,4.388,4.388,0,0,1,.742,1.088v0c.014.028.034.067.05.1a15.152,15.152,0,0,1,.973,2.035,19.293,19.293,0,0,1,1.294,5.278c.171,1.738.338,3.589.464,5.332.2,2.729.338,5.357.338,7.932a54.755,54.755,0,0,1-.419,7.043h0l-1.119,10.114-.106.938a2.43,2.43,0,0,1,.93.192,2.264,2.264,0,0,1,.371.257l3.64.549a136.451,136.451,0,0,1,11.226-11.51l4.378-3.98a1.892,1.892,0,0,0,.464-.649,1.934,1.934,0,0,0,.155-.763,1.941,1.941,0,0,0-.121-.678,1.922,1.922,0,0,0-.37-.6,1.891,1.891,0,0,0-.647-.462,1.926,1.926,0,0,0-.763-.158,1.939,1.939,0,0,0-.682.122,1.929,1.929,0,0,0-.6.368l-5.23,4.754a1.073,1.073,0,0,1-1.014.226,1.073,1.073,0,0,1-.717-.754,9.8,9.8,0,0,1-.212-1.309c-.039-.42-.052-.827-.052-1.192a13.834,13.834,0,0,1,.08-1.526l1.12-20.266,0-.068a1.7,1.7,0,0,0,.018-.236,2.224,2.224,0,0,0-.18-.832,2.684,2.684,0,0,0-.5-.788,2.125,2.125,0,0,0-.445-.372,1.494,1.494,0,0,0-.617-.23h0a1.39,1.39,0,0,0-.144-.008,1.606,1.606,0,0,0-.4.054,2.439,2.439,0,0,0-.46.171,3.344,3.344,0,0,0-.893.647,3.3,3.3,0,0,0-.444.561,1.917,1.917,0,0,0-.265.708l-1.2,9.75a1.055,1.055,0,0,1-1.173.917,1.056,1.056,0,0,1-.915-1.173l1.2-9.751,1.138-9.23v0a1.574,1.574,0,0,0,.018-.236,1.562,1.562,0,0,0-.144-.67,1.431,1.431,0,0,0-.4-.5,1.83,1.83,0,0,0-.409-.256,2.44,2.44,0,0,0-.724-.2,1.686,1.686,0,0,0-.232-.015,1.889,1.889,0,0,0-.979.277,1.932,1.932,0,0,0-.7.73,1.963,1.963,0,0,0-.212.664l-.67,7.06a1.048,1.048,0,0,1-1.146.946,1.048,1.048,0,0,1-.945-1.145l.116-1.259a1.018,1.018,0,0,1-.121-.47,1.8,1.8,0,0,0-.045-.382,3.087,3.087,0,0,0-.141-.5,4.042,4.042,0,0,0-.583-1.055,3.4,3.4,0,0,0-.576-.588,2.555,2.555,0,0,0-.928-.48,2.556,2.556,0,0,0-.637-.08h-.016a2.911,2.911,0,0,0-1.183.3,3.368,3.368,0,0,0-1.063.786,2.1,2.1,0,0,0-.392.621,1.187,1.187,0,0,0-.088.333l-.083.68-.068,1.436c.061,0,.122-.02.184-.02A4.572,4.572,0,0,1-853.18-2337.814Zm-31.428-3.948v0Zm13.751-8.93h0v0Zm-4.469-3.486h0Z" transform="translate(888.777 2354.177)" fill="#34456b" stroke="rgba(0,0,0,0)" stroke-miterlimit="10" stroke-width="1"/>
    </g>
  </g>
</svg>
