<svg xmlns="http://www.w3.org/2000/svg" width="96" height="96" viewBox="0 0 96 96">
  <g id="icon-amigos" transform="translate(3.697 8.938)">
    <path id="Path_19" data-name="Path 19" d="M262.087,43.551a5.248,5.248,0,0,0-.948-3.218l-5.629-8.769a6.725,6.725,0,0,0,.625-2.907c0-4.926-3.782-7.356-11.537-7.432l-4.83-2.415V14.755a10.568,10.568,0,0,0,4.464-8.417V-1.1a10.828,10.828,0,0,0-10.415-10.415A10.427,10.427,0,0,0,223.4-1.1V6.338a10.406,10.406,0,0,0,4.464,8.536v3.367H208.524V14.755a10.568,10.568,0,0,0,4.464-8.417V-1.1a10.828,10.828,0,0,0-10.415-10.415A10.427,10.427,0,0,0,192.158-1.1V6.338a10.343,10.343,0,0,0,1.283,5,11.424,11.424,0,0,0-2.48,1.515L184.138-2.087a5.893,5.893,0,0,0-7.817-2.941,5.89,5.89,0,0,0-3.366,4.109,5.914,5.914,0,0,0,.414,3.81l15.7,36.951a1.508,1.508,0,0,1,.118.58V65.853h2.976V40.422a4.4,4.4,0,0,0-.357-1.745L176.08,1.668a3.038,3.038,0,0,1-.216-1.962,2.943,2.943,0,0,1,1.669-2.018,2.96,2.96,0,0,1,3.909,1.483L188.807,15.3a6.908,6.908,0,0,0-1.113,3.6,6.9,6.9,0,0,0,6.834,6.783c5.535,0,6.393-5.266,6.529-9.049a10.4,10.4,0,0,0,1.516.122,9.744,9.744,0,0,0,2.976-.473v4.937h19.564l-10.449,8.362a4.435,4.435,0,0,0-1.675,3.483V65.853h2.976V34.259L219.7,36.5a1.5,1.5,0,0,1,.725,1.277V65.853H223.4V37.781a4.491,4.491,0,0,0-2.166-3.828l-4.16-2.5,13.766-11.013V16.316a10.393,10.393,0,0,0,2.976.437,9.744,9.744,0,0,0,2.976-.473v4.37l5.972,2.986c.1,4.394,1.01,7.42,2.784,9.2a6.309,6.309,0,0,0,4.635,1.775,6.535,6.535,0,0,0,3.239-.789l5.292,8.235a2.476,2.476,0,0,1,.4,1.5,3.075,3.075,0,0,1-.787,2l-8.656,9.906,2.241,1.96,2.372-2.715a3.117,3.117,0,0,1,.367,1.483c0,2.052-2,3.72-4.464,3.72a4.467,4.467,0,0,1-4.464-4.464V54.032l6.338-7.392L249.8,44.7l-4.081,4.758V37.583h-2.976V65.853h2.976v-4.5a7.371,7.371,0,0,0,4.464,1.525c4.1,0,7.439-3,7.439-6.7a6.033,6.033,0,0,0-1.317-3.8l4.266-4.88A6,6,0,0,0,262.087,43.551ZM194.528,22.7A3.934,3.934,0,0,1,190.67,18.9c0-1.992,2.016-4.15,4.633-5.114a10.474,10.474,0,0,0,2.788,1.943C198.011,20.244,197.331,22.7,194.528,22.7Zm8.045-8.927a7.539,7.539,0,0,1-7.439-7.439V-1.1a7.54,7.54,0,0,1,7.439-7.439c3.44,0,7.439,3.251,7.439,7.439V6.338A7.732,7.732,0,0,1,202.573,13.778Zm31.245,0a7.539,7.539,0,0,1-7.439-7.439V-1.1a7.54,7.54,0,0,1,7.439-7.439c3.44,0,7.439,3.251,7.439,7.439V6.338A7.732,7.732,0,0,1,233.818,13.778Zm16.366,17.854a3.266,3.266,0,0,1-2.529-.9c-.793-.8-1.72-2.567-1.9-6.5,7.408.338,7.408,3.175,7.408,4.429C253.16,30.714,252.241,31.632,250.184,31.632Z" transform="translate(-172.814 11.516)" fill="#34456b"/>
    <path id="Path_20" data-name="Path 20" d="M191.185,62.923V37.493a4.4,4.4,0,0,0-.357-1.745L175.107-1.261a2.9,2.9,0,0,1-.216-1.962,2.682,2.682,0,0,1,1.669-2.018,2.96,2.96,0,0,1,3.909,1.483l7.365,16.125a6.908,6.908,0,0,0-1.113,3.6,6.9,6.9,0,0,0,6.834,6.783c5.535,0,6.393-5.266,6.529-9.049a10.4,10.4,0,0,0,1.516.122,9.744,9.744,0,0,0,2.976-.473v4.937h19.564L213.69,26.649a4.435,4.435,0,0,0-1.675,3.483V62.923" transform="translate(-171.84 14.445)" fill="#aee0f8"/>
    <rect id="Rectangle_36" data-name="Rectangle 36" width="96" height="96" transform="translate(-3.697 -8.938)" fill="rgba(255,255,255,0.01)"/>
  </g>
</svg>
