<svg xmlns="http://www.w3.org/2000/svg" width="96" height="96" viewBox="0 0 96 96">
  <g id="icon-abrazo-de-oso" transform="translate(3.815 8.938)">
    <rect id="Rectangle_37" data-name="Rectangle 37" width="96" height="96" transform="translate(-3.815 -8.938)" fill="rgba(255,255,255,0.01)"/>
    <path id="Path_17" data-name="Path 17" d="M272.745,54.144c0-13.41-9.717-19.351-17.524-24.126-5.765-3.526-10.745-6.57-10.745-11.583a5.578,5.578,0,0,1,5.951-5.951c2.583,0,5.91,1.58,9.76,3.407,6.578,3.123,14.764,7.008,25.948,7.008s19.372-3.885,25.95-7.008c3.849-1.827,7.176-3.407,9.759-3.407a5.578,5.578,0,0,1,5.951,5.951c0,5.147-5.157,8.466-11.128,12.308-8.036,5.17-17.142,11.03-17.142,23.4" transform="translate(-241.5 24.093)" fill="#aee0f8"/>
    <path id="Path_18" data-name="Path 18" d="M255.867,30.429V27.453h-2.976v2.976ZM278.2,6.108c-.007-.076-.01-.152-.01-.229a2.232,2.232,0,0,1,4.464,0,2.11,2.11,0,0,1-.01.219l2.959.314a5.208,5.208,0,1,0-10.388-.533c0,.174.009.342.025.51Zm5.941,6.466a2.977,2.977,0,0,0,1.309,2.464,2.968,2.968,0,0,1-5.773-.976H276.7a5.928,5.928,0,0,0,10.415,3.9,5.928,5.928,0,0,0,10.415-3.9h-2.976a2.968,2.968,0,0,1-5.773.976,2.975,2.975,0,1,0-4.642-2.464Zm7.45-6.477a2.118,2.118,0,0,1-.01-.219,2.232,2.232,0,0,1,4.464,0c0,.077,0,.153-.01.229l2.961.281c.016-.168.025-.336.025-.51a5.208,5.208,0,1,0-10.415,0,4.853,4.853,0,0,0,.028.533ZM249.915,34.892h2.976V31.917h-2.976Zm68.442-4.464h2.976V27.453h-2.976ZM322.82,21.5c-3.252,0-6.859,1.713-11.035,3.7-6.309,2.994-14.158,6.719-24.673,6.719s-18.365-3.726-24.673-6.719c-4.176-1.983-7.782-3.7-11.035-3.7a8.542,8.542,0,0,0-8.927,8.927c0,6.68,5.911,10.293,12.168,14.121,7.915,4.84,16.1,9.847,16.1,21.587h2.976c0-13.41-9.717-19.351-17.524-24.126-5.765-3.526-10.745-6.57-10.745-11.583a5.578,5.578,0,0,1,5.951-5.951c2.583,0,5.91,1.58,9.76,3.407,6.578,3.123,14.764,7.008,25.948,7.008s19.372-3.885,25.95-7.008c3.849-1.827,7.176-3.407,9.759-3.407a5.578,5.578,0,0,1,5.951,5.951c0,5.147-5.157,8.466-11.128,12.308-8.036,5.17-17.142,11.03-17.142,23.4h2.976c0-10.748,8.02-15.908,15.776-20.9,6.425-4.136,12.494-8.04,12.494-14.812A8.542,8.542,0,0,0,322.82,21.5Zm-1.488,13.391h2.976V31.917h-2.976ZM265.279,5.711a16.974,16.974,0,0,0-.485,3.888c0,10.665,10.012,19.342,22.318,19.342S309.43,20.264,309.43,9.6a16.936,16.936,0,0,0-.51-4.005,13.021,13.021,0,0,0,3.851-7.325A9.021,9.021,0,0,0,310.6-9.337a9.021,9.021,0,0,0-7.423-2.735A13.1,13.1,0,0,0,295.259-8.5l.134.144a25.433,25.433,0,0,0-16.771.071l.2-.216a13.1,13.1,0,0,0-7.914-3.571,9.013,9.013,0,0,0-7.423,2.733,9.025,9.025,0,0,0-2.174,7.607A13.061,13.061,0,0,0,265.279,5.711Zm.458-12.958a6.021,6.021,0,0,1,4.956-1.759,9.736,9.736,0,0,1,5.045,1.971c-.231.118-.463.229-.687.354l2.209,2.209a22.264,22.264,0,0,1,19.893.1l2.2-2.2c-.312-.179-.635-.339-.955-.5a9.706,9.706,0,0,1,4.993-1.931,6.012,6.012,0,0,1,4.955,1.76,6,6,0,0,1,1.384,5.072A9.593,9.593,0,0,1,307.751,2.3c-.235-.5-.466-1.007-.751-1.491l-3.147.573.318.5A14.412,14.412,0,0,1,306.454,9.6c0,9.025-8.677,16.366-19.342,16.366S267.77,18.624,267.77,9.6a14.4,14.4,0,0,1,2.257-7.67l.314-.5L267.2.856c-.293.5-.536,1.03-.778,1.553a9.611,9.611,0,0,1-2.062-4.583A6.013,6.013,0,0,1,265.737-7.247Z" transform="translate(-242.476 12.099)" fill="#34456b"/>
  </g>
</svg>
